<svg width="611" height="544" viewBox="0 0 611 544" fill="none" xmlns="http://www.w3.org/2000/svg">
<path d="M55.288 110.575H0V267.244H55.288V110.575Z" fill="white"/>
<path d="M110.575 55.288H165.863H223.686V110.575H278.974V55.288H223.686V0H165.863H110.575V55.288H55.2871V110.575H110.575V55.288Z" fill="white"/>
<path d="M110.575 267.243H55.2871V322.531H110.575V267.243Z" fill="white"/>
<path d="M165.864 322.532H110.576V377.82H165.864V322.532Z" fill="white"/>
<path d="M221.151 377.819H165.863V433.107H221.151V377.819Z" fill="white"/>
<path d="M610.702 110.575H555.414V267.244H610.702V110.575Z" fill="white"/>
<path d="M555.415 267.243H500.127V322.531H555.415V267.243Z" fill="white"/>
<path d="M500.126 322.532H444.838V377.82H500.126V322.532Z" fill="white"/>
<path d="M444.839 377.819H389.551V433.107H444.839V377.819Z" fill="white"/>
<path d="M334.262 488.396H276.44V433.108H221.152V488.396H276.439V543.684H334.263V488.396H389.55V433.108H334.262V488.396Z" fill="white"/>
<path d="M387.015 55.288H444.838H500.126V110.575H555.414V55.288H500.126V0H444.838H387.015V55.288H331.727V110.575H387.015V55.288Z" fill="white"/>
<path d="M331.727 110.575H278.975V165.863H331.727V110.575Z" fill="white"/>
</svg>
