<svg width="611" height="544" viewBox="0 0 611 544" fill="none" xmlns="http://www.w3.org/2000/svg">
<path d="M276.44 543.684V488.396H221.152V433.108H165.864V377.82H110.576V322.532H55.288V267.244H0V110.575H55.288V55.288H110.576V0H223.688V55.288H278.975V110.575H331.727V55.288H387.015V0H500.127V55.288H555.415V110.575H610.703V267.244H555.415V322.532H500.127V377.82H444.839V433.108H389.551V488.396H334.263V543.684H276.44Z" fill="#E02020"/>
<path d="M55.288 110.575H0V267.244H55.288V110.575Z" fill="#E02020"/>
<path d="M110.575 55.288H165.863H223.687V110.575H278.974V55.288H223.687V0H165.863H110.575V55.288H55.2871V110.575H110.575V55.288Z" fill="#E02020"/>
<path d="M110.575 267.243H55.2871V322.531H110.575V267.243Z" fill="#E02020"/>
<path d="M165.864 322.532H110.576V377.82H165.864V322.532Z" fill="#E02020"/>
<path d="M221.151 377.819H165.863V433.107H221.151V377.819Z" fill="#E02020"/>
<path d="M610.702 110.575H555.414V267.244H610.702V110.575Z" fill="#E02020"/>
<path d="M555.415 267.243H500.127V322.531H555.415V267.243Z" fill="#E02020"/>
<path d="M500.128 322.532H444.84V377.82H500.128V322.532Z" fill="#E02020"/>
<path d="M444.839 377.819H389.551V433.107H444.839V377.819Z" fill="#E02020"/>
<path d="M334.263 488.396H276.44V433.108H221.152V488.396H276.439V543.684H334.263V488.396H389.551V433.108H334.263V488.396Z" fill="#E02020"/>
<path d="M387.015 55.288H444.839H500.127V110.575H555.415V55.288H500.127V0H444.839H387.015V55.288H331.727V110.575H387.015V55.288Z" fill="#E02020"/>
<path d="M331.727 110.575H278.975V165.863H331.727V110.575Z" fill="#E02020"/>
</svg>
