<svg width="512" height="738" viewBox="0 0 512 738" fill="none" xmlns="http://www.w3.org/2000/svg">
<path d="M398.64 709.383V680.91H370.203C344.16 680.91 341.75 680.859 341.543 680.328C341.422 680.008 341.328 667.395 341.336 652.297C341.351 637.199 341.351 624.649 341.351 624.406C341.351 624.059 335.34 623.945 313.133 623.875L284.926 623.785L284.75 595.485L284.57 567.188L227.976 566.836L227.797 511.477H143.301C72.082 511.477 58.746 511.402 58.406 510.992C58.113 510.637 58.008 503.078 58.015 482.961C58.027 467.809 58.027 455.215 58.015 454.973C58.015 454.621 51.969 454.531 29.004 454.531H0V283.328H29.004C51.969 283.328 58.011 283.238 58.015 282.887C58.015 282.645 58.015 270.012 58.015 254.817C58 231.867 58.086 227.117 58.484 226.785C58.843 226.488 81.039 226.359 143.297 226.293L227.621 226.203L227.801 197.906L227.976 169.609L256.273 169.434L284.57 169.254L284.75 141.664L284.926 114.074L313.133 113.985C335.34 113.914 341.343 113.801 341.351 113.453C341.351 113.211 341.351 100.711 341.34 85.668C341.324 65.617 341.433 57.953 341.738 56.93L342.156 55.535H398.64V0H455.59V27.918C455.59 43.27 455.687 56.082 455.804 56.391C455.996 56.895 458.773 56.949 483.57 56.949H511.121V680.91H483.57C458.773 680.91 455.996 680.965 455.804 681.469C455.687 681.777 455.59 694.59 455.59 709.942V737.859H398.64V709.383ZM455.41 368.93C455.41 72.266 455.383 57.129 454.793 57.016C454.203 56.902 454.172 71.945 454.172 368.93C454.172 665.91 454.203 680.957 454.793 680.84C455.383 680.727 455.41 665.594 455.41 368.93ZM170.492 368.93V283.68L58.711 283.859V368.754C58.711 415.445 58.711 453.766 58.711 453.91C58.711 454.055 83.859 454.176 114.597 454.176H170.484L170.492 368.93Z" fill="white"/>
</svg>
