<svg width="439" height="438" viewBox="0 0 439 438" fill="none" xmlns="http://www.w3.org/2000/svg">
<path d="M93.7373 0V25.5469H119.263V52.4395H146.131V79.3311H173V106.223H199.869V131.771H239.131V106.223H266V79.3311H292.869V52.4395H318.394V25.5469H345.263V0H439V92.4395H412.131V119.331H385.263V146.223H358.394V171.771H332.869V198.662H306V239.338H332.869V264.885H358.394V291.777H385.263V318.669H412.131V345.561H439V438H345.263V411.108H318.394V385.561H292.869V358.669H266V331.777H239.131V304.885H199.869V331.777H173V358.669H146.131V385.561H119.263V411.108H93.7373V438H0V345.561H25.5254V318.669H53.7373V291.777H79.2627V264.885H106.131V239.338H133V198.662H106.131V171.771H79.2627V146.223H53.7373V119.331H25.5254V92.4395H0V0H93.7373Z" fill="white"/>
</svg>
