<svg width="471" height="588" viewBox="0 0 471 588" fill="none" xmlns="http://www.w3.org/2000/svg">
<g clip-path="url(#clip0_240_232)">
<path d="M235 510H274H314H353H392V470H431V431H471V392V353V313V274H431V313V353H392V392H353H314H274H235H196H157V353V313H118V353H78V392H39V431H0V470H39V510H78V549H118V588H157V549V510H196H235Z" fill="white"/>
<path d="M39 274V235H78V196H118H157H196H235H274H314V235V274H353V235H392V196H431V157H471V117H431V78H392V39H353V0H314V39V78H274H235H196H157H118H78V117H39V157H0V196V235V274V313H39V274Z" fill="white"/>
</g>
<defs>
<clipPath id="clip0_240_232">
<rect width="471" height="588" fill="white"/>
</clipPath>
</defs>
</svg>
