<svg width="24" height="24" viewBox="0 0 24 24" fill="none" xmlns="http://www.w3.org/2000/svg">
<path d="M3.14001 16.62L1.39001 18.36L5.64001 22.61L7.38 20.86C7.90002 21.13 8.44 21.36 9 21.53V24H15V21.53C15.56 21.36 16.1 21.13 16.62 20.86L18.36 22.61L22.61 18.36L20.86 16.62C21.13 16.1 21.36 15.56 21.53 15H24V9H21.53C21.36 8.44 21.13 7.89996 20.86 7.38L22.61 5.64001L18.36 1.39001L16.62 3.14001C16.1 2.87 15.56 2.64001 15 2.46997V0H9V2.46997C8.44 2.64001 7.90002 2.87 7.38 3.14001L5.64001 1.39001L1.39001 5.64001L3.14001 7.38C2.87 7.89996 2.64001 8.44 2.46997 9H0V15H2.46997C2.64001 15.56 2.87 16.1 3.14001 16.62ZM12 8C14.21 8 16 9.78998 16 12C16 14.21 14.21 16 12 16C9.78998 16 8 14.21 8 12C8 9.78998 9.78998 8 12 8Z" fill="white"/>
</svg>
